# xmcd
#
# Track frame offsets:
#	150
#	16197
#	32760
#	61425
#	79300
#	94637
#	123115
#	136470
#	151775
#	176605
#	196627
#	216857
#
# Disc length: 3247
#
# Revision: 1
# Processed by: cddbd v1.5.1PL0 Copyright (c) Steve Scherf et al.
# Submitted via: FreeRIP 2.92 
# Normalized: r0:TRMNUM
#
DISCID=930cad0c
DTITLE=Don and Brenda Stewart - Keep The Candle Burning
DYEAR=1999
DGENRE=Gospel
TTITLE0=He's Under Your Feet
TTITLE1=Thindking Just Now Of A City
TTITLE2=Anointed To Anoint
TTITLE3=Keep The Candle Burning
TTITLE4=What A Day That Will Be
TTITLE5=Sheperd Boy
TTITLE6=Devil's In The Phone Booth (911)
TTITLE7=Jesus Is Here
TTITLE8=What A Healing Jesus
TTITLE9=Show Me The Cross
TTITLE10=Touch Through Me
TTITLE11=Thank You
EXTD=Power and Mercy Productions\nDon Stewart Assoc., P.O. Box 2990\nPhoenix, AZ 85062\n(602) 678-3280
EXTT0=
EXTT1=
EXTT2=
EXTT3=
EXTT4=
EXTT5=
EXTT6=
EXTT7=
EXTT8=
EXTT9=
EXTT10=
EXTT11=
PLAYORDER=
